<svg width="256" height="256" viewBox="0 0 256 256" fill="none" xmlns="http://www.w3.org/2000/svg">
<path d="M127.988 238.124C127.508 238.124 127.045 238.124 126.615 238.114C113.898 237.986 101.302 235.626 89.3981 231.142C77.4786 226.699 66.4279 220.197 56.7472 211.932C50.5529 206.67 44.9638 200.731 40.0833 194.226C35.2921 187.834 31.2094 180.939 27.9071 173.661C24.5935 166.389 22.0792 158.777 20.4091 150.959C18.7139 142.999 17.9087 134.875 18.0082 126.737C18.0808 119.963 18.7791 113.21 20.0935 106.565C21.4413 99.7789 23.4264 93.1352 26.0228 86.7234C28.6792 80.1287 31.9671 73.8077 35.8404 67.8489C39.6792 61.9527 44.0729 56.4386 48.9612 51.3825C54.5716 45.5739 60.8045 40.4034 67.5466 35.9651C74.2568 31.5497 81.4292 27.8836 88.9353 25.0323C89.9078 24.662 90.9183 24.2939 91.9381 23.9391C103.46 19.9234 115.572 17.874 127.77 17.8765C128.161 17.8765 128.571 17.8765 129.027 17.8848H129.193V44.9807L128.689 44.9734C128.452 44.9734 128.21 44.9734 127.968 44.9734C126.939 44.9734 125.893 44.993 124.869 45.0322C115.877 45.364 106.999 47.1577 98.581 50.3429C93.114 52.4198 87.8797 55.0671 82.9653 58.2413C78.1091 61.3809 73.5932 65.0197 69.4907 69.0988C63.9532 74.624 59.221 80.9046 55.4342 87.7548C53.7077 90.8787 52.181 94.1094 50.8631 97.4273C49.1625 101.746 47.8236 106.198 46.8608 110.74C45.7224 116.102 45.1126 121.564 45.0403 127.046C44.9779 133.135 45.5822 139.213 46.8422 145.171C48.0987 151.11 49.9965 156.894 52.5022 162.422C55.0196 167.944 58.1298 173.175 61.7776 178.022C65.4378 182.883 69.6187 187.328 74.2457 191.275C78.4201 194.818 82.9328 197.94 87.7178 200.596C91.3013 202.587 95.0257 204.313 98.8608 205.758C102.701 207.189 106.641 208.336 110.649 209.19C115.999 210.331 121.449 210.942 126.919 211.014C127.209 211.014 127.504 211.014 127.799 211.014C133.727 211.013 139.638 210.375 145.431 209.113C151.208 207.854 156.835 205.982 162.217 203.53C167.977 200.892 173.418 197.605 178.435 193.732C183.469 189.846 188.042 185.394 192.063 180.463C196.147 175.454 199.629 169.981 202.437 164.157C205.333 158.136 207.496 151.788 208.88 145.249C210.155 139.607 210.643 133.815 210.328 128.038C210.106 124.198 209.273 120.418 207.859 116.841C206.985 114.65 205.786 112.603 204.302 110.772C203.765 110.099 203.157 109.486 202.489 108.945L200.17 111.341L199.985 111.524C194.032 117.403 163.954 147.144 156.378 154.749C153.463 157.535 150.01 159.692 146.231 161.087C142.706 162.378 138.98 163.031 135.227 163.015C127.645 163.015 120.077 160.436 114.985 156.129L86.8078 129.21C85.5489 127.955 84.5513 126.462 83.8718 124.817C83.1922 123.173 82.8447 121.41 82.8492 119.63C82.8446 117.851 83.1922 116.088 83.8718 114.444C84.5513 112.799 85.5489 111.307 86.8078 110.052C88.0601 108.79 89.5498 107.789 91.1904 107.108C92.8311 106.427 94.5902 106.079 96.366 106.084C98.1417 106.079 99.9011 106.427 101.542 107.108C103.182 107.789 104.671 108.79 105.923 110.052C112.73 116.826 115.621 119.842 117.942 122.264L117.948 122.271C119.609 124.003 121.044 125.5 123.455 127.9C126.613 130.981 130.805 132.768 135.21 132.91C137.135 132.899 139.039 132.503 140.81 131.745C142.581 130.987 144.183 129.883 145.522 128.497C152.829 121.106 162.545 111.112 169.638 103.815L169.662 103.79C174.91 98.3957 179.048 94.1351 180.282 92.9139C183.345 89.5733 187.089 86.9313 191.26 85.167C195.475 83.3731 200.007 82.4445 204.586 82.4359C210.725 82.3964 216.741 84.1699 221.881 87.5351C224.621 89.3566 227.054 91.6024 229.092 94.1887C231.374 97.1103 233.206 100.359 234.526 103.826C235.919 107.556 236.863 111.439 237.34 115.392C237.863 119.565 238.075 123.771 237.976 127.975C237.795 135.676 236.906 143.344 235.322 150.882C233.41 159.924 230.373 168.691 226.283 176.976C222.32 184.984 217.394 192.476 211.615 199.284C206.363 205.492 200.437 211.093 193.947 215.986C187.57 220.787 180.69 224.879 173.429 228.188C166.377 231.417 159.004 233.888 151.433 235.561C143.732 237.259 135.871 238.116 127.986 238.117L127.988 238.124Z" fill="white"/>
<path d="M129 17.8765V44.8531C134.355 44.9467 139.689 45.5536 144.927 46.6654C145.183 46.7219 145.442 46.7681 145.695 46.8061C153.463 48.5385 160.94 51.3742 167.897 55.226C169.9 56.3365 172.154 56.9196 174.447 56.9203H174.461C178.041 56.919 181.475 55.5059 184.012 52.9899C186.549 50.4739 187.983 47.0597 188 43.4936V43.3786C187.992 40.9788 187.341 38.6247 186.115 36.5592C184.888 34.4937 183.131 32.7916 181.024 31.6287C165.1 22.8079 147.219 18.0813 129 17.8765Z" fill="url(#paint0_linear_2010_2)"/>
<defs>
<linearGradient id="paint0_linear_2010_2" x1="132.599" y1="37.3984" x2="170.125" y2="70.8734" gradientUnits="userSpaceOnUse">
<stop stop-color="white"/>
<stop offset="1" stop-color="white" stop-opacity="0"/>
</linearGradient>
</defs>
</svg>
